<svg xmlns="http://www.w3.org/2000/svg" viewBox="0 0 511.999 511.999">
  <path d="M248.43 20.771h15.15v47.164h-15.15zm53.214 56.551l19.799-42.804 13.749 6.36-19.799 42.804zM176.809 40.878l13.75-6.36 19.798 42.804-13.75 6.36zM148.222 184.17l6.407-13.729 11.039 5.152-6.407 13.729zm17.826 24.088l6.407-13.729 11.039 5.152-6.407 13.729zm5.682 56.949l6.408-13.73 11.038 5.152-6.407 13.73zm-62.637 8.665l6.407-13.729 11.038 5.151-6.407 13.73zm8.985 51.535l6.407-13.729 11.038 5.151-6.407 13.73z"/>
  <path d="M505.592 432.085l-50.982-.205-37.484-80.319 10.657-15.02c16.061-22.637 18.748-52.325 7.008-77.477L359.57 97.882 256 146.216 152.432 97.882 77.208 259.064c-11.738 25.153-9.052 54.84 7.009 77.477l10.657 15.019-37.484 80.319-50.98.205L0 445.819l97.297 45.408 6.408-13.735-32.587-39.205 37.484-80.319 18.356-1.479c27.667-2.229 52.146-19.238 63.885-44.39L256 172.487l65.156 139.611c11.738 25.152 36.217 42.162 63.885 44.39l18.357 1.479 37.484 80.319-32.587 39.206 6.408 13.735 97.296-45.408-6.407-13.734zM71.53 462.483l-32.949-15.377 20.101-.082 12.848 15.459zm105.587-156.792c-9.439 20.226-29.124 33.905-51.373 35.697l-18.455 1.487-10.714-15.1c-12.917-18.203-15.076-42.077-5.637-62.304l55.421-118.75c.659.733 1.263 1.511 1.923 2.363 2.614 3.374 5.869 7.574 13.773 11.263 7.905 3.689 13.214 3.484 17.479 3.323 3.432-.131 5.911-.226 10.493 1.913 4.583 2.139 6.103 4.101 8.206 6.814 2.615 3.374 5.869 7.574 13.775 11.264 7.906 3.688 13.215 3.487 17.481 3.324 1.077-.041 2.06-.07 3.045-.036l-55.417 118.742zm62.102-133.07c-4.195-1.001-7.484-.883-10.31-.775-3.431.129-5.911.225-10.495-1.914-4.583-2.139-6.102-4.101-8.206-6.814-2.615-3.374-5.869-7.574-13.775-11.263-7.906-3.69-13.216-3.487-17.479-3.323-3.432.13-5.912.226-10.493-1.913-4.582-2.139-6.102-4.1-8.206-6.814-1.732-2.235-3.754-4.833-7.214-7.404l6.712-14.383 86.179 40.219-6.713 14.384zm37.596 2.155c-.662.853-1.266 1.632-1.924 2.365l-8.822-18.904 86.18-40.219 8.818 18.896c-.984.034-1.967.005-3.043-.036-4.267-.165-9.576-.367-17.48 3.323-7.905 3.69-11.159 7.889-13.774 11.263-2.103 2.715-3.623 4.675-8.204 6.813-4.582 2.139-7.063 2.043-10.495 1.913-4.265-.166-9.574-.367-17.481 3.324-7.908 3.69-11.161 7.887-13.775 11.262zm127.898 168.099l-18.455-1.487c-22.249-1.793-41.934-15.471-51.374-35.697l-53.311-114.23c3.461-2.572 5.483-5.17 7.216-7.405 2.104-2.715 3.624-4.675 8.207-6.814 4.583-2.14 7.061-2.045 10.495-1.913 4.268.164 9.574.366 17.481-3.324 7.904-3.69 11.158-7.889 13.773-11.263 2.103-2.715 3.622-4.675 8.205-6.814 4.582-2.139 7.061-2.042 10.494-1.913 2.825.108 6.115.226 10.309-.774l53.311 114.231c9.439 20.226 7.279 44.1-5.637 62.303l-10.714 15.1zm35.757 119.608l12.849-15.458 20.1.082-32.949 15.376z"/>
  <path d="M363.008 217.254l11.038-5.151 6.407 13.728-11.038 5.152zm-34.472-33.096l11.038-5.152 6.407 13.73-11.038 5.15zm-11.209 43.475l11.039-5.152 6.406 13.73-11.038 5.15zm34.653 52.287l11.039-5.152 6.407 13.73-11.039 5.15zm35.551 8.134l11.038-5.151 6.407 13.729-11.038 5.151z"/>
</svg>
