<svg xmlns="http://www.w3.org/2000/svg" viewBox="0 0 512.001 512.001">
  <path d="M478.329 183.82H300.803c-7.9-27.511-23.412-52.593-45.133-72.042-32.922-29.481-75.446-43.016-119.749-38.119C64.871 81.518 8.048 138.871.809 210.032c-3.953 38.846 6.67 77.251 29.909 108.14 22.271 29.6 54.229 50.063 90.203 57.816l37.845 37.844a16.512 16.512 0 0 0 18.056 3.59 16.518 16.518 0 0 0 10.227-15.307V375.62a153.788 153.788 0 0 0 18.172-5.257v1.05c0 18.566 15.105 33.671 33.671 33.671h56.539l30.119 30.119a14.004 14.004 0 0 0 15.305 3.045 14.004 14.004 0 0 0 8.67-12.976v-20.188H478.33c18.566 0 33.671-15.105 33.671-33.671V217.489c-.001-18.564-15.106-33.669-33.672-33.669zM177.625 361.164a8.015 8.015 0 0 0-6.609 7.892v33.06c0 .191 0 .357-.33.494-.33.135-.446.019-.583-.115l-39.539-39.539a8.008 8.008 0 0 0-4.106-2.194c-33.084-6.575-62.535-25.124-82.928-52.229-20.805-27.654-30.313-62.059-26.771-96.878 3.121-30.685 17.014-59.873 39.119-82.19 22.109-22.32 51.16-36.479 81.805-39.868 5.332-.59 10.628-.882 15.885-.882 33.893 0 65.884 12.154 91.405 35.007 29.082 26.042 45.761 63.35 45.761 102.359.001 66.582-47.568 123.392-113.109 135.083zm318.341 10.25c0 9.725-7.912 17.637-17.637 17.637H341.508a8.017 8.017 0 0 0-8.017 8.017v23.403L304.42 391.4a8.012 8.012 0 0 0-5.668-2.348h-59.859c-9.725 0-17.637-7.912-17.637-17.637v-7.818c51.32-25.224 85.513-77.856 85.513-137.515 0-8.852-.781-17.622-2.28-26.228H478.33c9.725 0 17.637 7.912 17.637 17.637v153.923z"/>
  <path d="M449.792 246.027a8.016 8.016 0 0 0-11.337 0l-79.845 79.845-37.069-37.069a8.016 8.016 0 0 0-11.337 0 8.016 8.016 0 0 0 0 11.337l42.737 42.737a7.992 7.992 0 0 0 5.668 2.348 7.99 7.99 0 0 0 5.669-2.348l85.513-85.513a8.015 8.015 0 0 0 .001-11.337zm-296.407 40.437h-.011a8.026 8.026 0 0 0-8.022 8.022v.01a8.026 8.026 0 0 0 8.022 8.022h.011a8.026 8.026 0 0 0 8.022-8.022v-.01a8.026 8.026 0 0 0-8.022-8.022zm35.709-121.751c-9.712-9.712-22.397-15.06-35.719-15.059-27.994.002-50.769 22.78-50.769 50.773a8.017 8.017 0 0 0 16.034 0c0-19.154 15.583-34.739 34.737-34.74 9.039 0 17.697 3.679 24.38 10.362s10.363 15.342 10.363 24.381c-.001 15.227-10.176 28.911-24.742 33.279-10.776 3.231-18.014 12.886-18.014 24.024v2.554a8.017 8.017 0 0 0 16.034 0v-2.554c0-4.002 2.647-7.485 6.587-8.666 21.295-6.386 36.169-26.385 36.17-48.636-.001-13.321-5.349-26.007-15.061-35.718z"/>
</svg>
