<svg xmlns="http://www.w3.org/2000/svg" width="98.1" height="149.922">
  <path fill="#7D4D25" d="M14.168 33.173h66.595v69.083H14.168z"/>
  <path fill="#683F1E" d="M49.15 41.717h33.779v66.487H49.15z"/>
  <path fill="#D7AB98" d="M84.36 99.764l-20.596-2.562V76.353h-29.43v20.849l-20.597 2.563A17.088 17.088 0 0 0 0 116.523v33.399c14.028 9.392 30.898 0 49.05 0s35.02-5.479 49.05-14.873v-18.527c0-8.147-5.75-15.161-13.74-16.758z"/>
  <path fill="#DBB59F" d="M98.1 116.522a17.092 17.092 0 0 0-13.739-16.759l-20.596-2.562V76.353H49.149v73.567c18.112-.02 34.947 9.377 48.95.002l.001-33.4z"/>
  <path fill="#D6C7A0" d="M79.035 39.876c0 18.961-13.462 44.145-30.069 44.145s-30.07-25.183-30.07-44.145c0-18.964 13.462-34.335 30.069-34.335s30.07 15.372 30.07 34.335z"/>
  <path fill="#E0BCA4" d="M48.967 5.541c-16.607 0-30.069 15.372-30.069 34.335 0 18.961 13.461 44.145 30.069 44.145.031 0 .061-.003.092-.004V5.543l-.092-.002z"/>
  <path fill="#EACCB8" d="M79.951 39.959c0-18.928-13.931-34.275-31.136-34.333v78.476c17.206-.094 31.136-25.215 31.136-44.143z"/>
  <path fill="#7D4D25" d="M29.859 17.564s23.403 23.268 52.707 26.87c0 0 6.512-44.434-36.224-44.434C20.094.001 3.61 24.919 17.244 44.885c0-.001-.612-16.062 12.615-27.321z"/>
  <path fill="#FFF" d="M82.915 120.988c-3.238-6.896-15.169-8.114-26.649-2.725a36.544 36.544 0 0 0-7.216 4.45 36.554 36.554 0 0 0-7.215-4.45c-11.48-5.39-23.412-4.171-26.65 2.725a8.66 8.66 0 0 0-.785 3.072h-.03l-.035 25.862c10.646 4.553 22.402 0 34.716 0 12.312 0 24.035-2.523 34.681-7.076V124.06H83.7a8.655 8.655 0 0 0-.785-3.072z"/>
  <path fill="#E0E1E0" d="M83.73 124.061h-.03a8.655 8.655 0 0 0-.785-3.072c-3.238-6.895-15.169-8.113-26.649-2.725a36.468 36.468 0 0 0-7.116 4.376v27.282c12.274-.014 23.733 4.541 34.353 0l.227-25.861z"/>
  <path fill="#FFF" d="M63.763 99.279c-.548 0-1.082-.22-1.47-.604a2.128 2.128 0 0 1-.611-1.477c0-.547.228-1.08.611-1.468a2.101 2.101 0 0 1 1.47-.612 2.12 2.12 0 0 1 1.475.612c.387.388.607.921.607 1.468 0 .549-.222 1.084-.607 1.477a2.12 2.12 0 0 1-1.475.604zm-16.837 8.829a2.073 2.073 0 0 1 2.038-2.115 2.075 2.075 0 0 1 2.117 2.039 2.08 2.08 0 0 1-2.039 2.121h-.036a2.077 2.077 0 0 1-2.08-2.045zm-5.012.088a2.08 2.08 0 1 1 2.092-3.596 2.079 2.079 0 0 1 .749 2.842 2.073 2.073 0 0 1-1.802 1.035 2.03 2.03 0 0 1-1.039-.281zm11.308-.884a2.084 2.084 0 0 1 .756-2.847 2.08 2.08 0 0 1 2.092 3.596 2.092 2.092 0 0 1-1.046.285 2.093 2.093 0 0 1-1.802-1.034zm-16.648-3.615v.007a2.086 2.086 0 0 1 .167-2.943 2.078 2.078 0 0 1 2.936.166c.762.855.69 2.172-.165 2.938a2.066 2.066 0 0 1-1.387.529 2.07 2.07 0 0 1-1.551-.697zm21.927.073a2.08 2.08 0 0 1-.097-2.938h.009a2.075 2.075 0 0 1 2.936-.097 2.08 2.08 0 0 1 .095 2.938v.006a2.076 2.076 0 0 1-1.516.652 2.062 2.062 0 0 1-1.427-.561zm-24.167-4.491c-.548 0-1.082-.22-1.469-.604a2.117 2.117 0 0 1-.613-1.477 2.095 2.095 0 0 1 2.082-2.08 2.12 2.12 0 0 1 1.474.612c.387.388.607.921.607 1.468 0 .549-.222 1.084-.607 1.477a2.121 2.121 0 0 1-1.474.604z"/>
  <path fill="#DDB49E" d="M49.435 68.404s.515-.128 2.05-.327c1.424-.186 9.017 2.498 9.017 2.498s-5.295 2.854-11.09 2.48m-.742-4.556s-.51-.124-1.975-.318c-1.351-.182-8.569 2.436-8.569 2.436s5.033 2.783 10.544 2.419"/>
  <path fill="#8D5A3D" d="M43.055 43.336c.459-.03.908-1.276.102-1.681-.813-.402-5.734-.793-5.734-.793-.964-.122-3.994.029-6.71.786 0 0-5.939 2.712-5.299 2.487 1.183-.413 6.694-1.341 6.694-1.341 1.484-.2 3.082-.405 4.374-.214-.001.001 6.118.786 6.573.756m11.468-.292c-.458-.025-.896-1.269-.084-1.68.818-.41 5.744-.846 5.744-.846.965-.13 3.995-.006 6.705.726 0 0 5.914 2.657 5.275 2.438-1.18-.401-6.685-1.279-6.685-1.279-1.483-.187-3.08-.378-4.374-.175.002.001-6.125.842-6.581.816"/>
  <path fill="#683F1E" d="M49.149.015v32.184c9.037 6.168 21.073 12.443 34.365 14.207C83.512 46.405 89.737.535 49.149.015z"/>
  <g fill="#F16364">
    <path d="M21.304 5.681a4.394 4.394 0 0 1 8.788 0c0 2.427-1.967 10.983-4.393 10.983-2.428 0-4.395-8.557-4.395-10.983z"/>
    <path d="M30.09 27.513a4.394 4.394 0 1 1-8.788 0c0-2.426 1.967-10.983 4.394-10.983s4.394 8.557 4.394 10.983z"/>
    <path d="M36.613 12.204a4.394 4.394 0 0 1 0 8.787c-2.426 0-10.983-1.967-10.983-4.393-.001-2.427 8.557-4.394 10.983-4.394z"/>
    <path d="M14.78 20.99a4.392 4.392 0 1 1 0-8.786c2.427 0 10.983 1.967 10.983 4.394.001 2.425-8.557 4.392-10.983 4.392z"/>
  </g>
  <path fill="#F8AC9F" d="M30.184 5.772a4.394 4.394 0 0 1 6.214 6.213c-1.717 1.716-9.156 6.375-10.873 4.66-1.716-1.715 2.945-9.157 4.659-10.873z"/>
  <path fill="#F8AC9F" d="M20.959 27.423a4.394 4.394 0 0 1-6.214-6.213c1.717-1.716 9.157-6.375 10.874-4.66 1.715 1.716-2.944 9.158-4.66 10.873z"/>
  <path fill="#F8AC9F" d="M36.397 21.21a4.394 4.394 0 0 1-6.214 6.213c-1.717-1.716-6.375-9.157-4.659-10.873 1.716-1.716 9.157 2.945 10.873 4.66z"/>
  <path fill="#F8AC9F" d="M14.745 11.984a4.393 4.393 0 1 1 6.214-6.213c1.716 1.716 6.375 9.158 4.66 10.873-1.716 1.716-9.157-2.944-10.874-4.66z"/>
  <circle cx="25.572" cy="16.663" r="4.393" fill="#376796"/>
</svg>
