<svg xmlns="http://www.w3.org/2000/svg" width="164.5" height="157.736">
  <path fill="#D8AB98" d="M64.745 72.321V85.16c0 5.37-2.731 10.373-7.249 13.277l-19.933 7.508 44.346 4.997V72.321H64.745z"/>
  <path fill="#DCB59F" d="M98.587 72.321V85.16c0 5.37 2.776 10.373 7.372 13.277l21.811 7.96-46.64 4.545V72.321h17.457z"/>
  <path fill="#6C422A" d="M87.687 9.936s5.454-3.918 8.208-4.22c2.753-.303 5.98-.437 7.164.987 1.184 1.424 13.917 16.272 13.438 19.813-.257 1.883-1.047 2.476-1.047 2.476s-.819-4.437-.819-1.271 3.344 7.817 3.723 9.797c1.134 5.917-4.64 22.401-5.932 23.861l-1.292 1.46s-.924-3.213-1.165.999c-.155 2.725.237 3.106-1.79 5.86-1.728 2.345-8.632 10.999-9.57 8.74-5.334-12.857-11.944-56.836-10.918-68.502"/>
  <path fill="#D6B6A2" d="M110.074 40.808s.765 6.421 1.654 5.678c.747-.625 1.583-8.518 2.133-7.768 1.204 1.642.687 10.746-.517 12.538-1.205 1.79-1.205 3.483-1.376 4.925-.172 1.439-2.665 3.054-3.008 1.711-.344-1.343 1.114-17.084 1.114-17.084m-56.686 0s-2.583-3.732-3.786-2.089c-1.205 1.641-.688 10.745.517 12.538 1.204 1.79 1.204 3.483 1.377 4.925.17 1.439 2.665 3.054 3.007 1.71.345-1.343-1.115-17.084-1.115-17.084"/>
  <path fill="#E0BCA4" d="M81.909 87.698c-3.72 0-7.339-1.13-10.303-3.217l-9.241-6.509a7.337 7.337 0 0 1-.985-.805c-3.329-3.335-4.583-8.862-5.395-13.324l-2.18-11.866a29.556 29.556 0 0 1-.473-6.232l-.208-15.918c.028-.931.154-1.858.392-2.762.862-3.283 2.183-5.874 2.647-6.603 2.726-4.279 9.29-13.759 25.893-13.759"/>
  <path fill="#DDB49E" d="M81.935 66.2s-.56-.152-2.165-.392c-1.483-.223-9.403 2.995-9.403 2.995s5.522 3.423 11.567 2.975"/>
  <path fill="#613C23" d="M80.781 62.587l-3.161-.63a2.598 2.598 0 0 0-1.692.227c-2.359 1.183-9.13 4.533-9.553 4.296-1.51-.844.565 1.851 1.64 1.418 3.41-1.371 10.975-2.763 12.767-2.929l-.001-2.382z"/>
  <path fill="#EACCB7" d="M81.158 87.698c3.821 0 7.536-1.13 10.582-3.217l9.491-6.509a7.791 7.791 0 0 0 1.012-.805c3.418-3.335 4.707-8.862 5.54-13.324l2.239-11.866a28.79 28.79 0 0 0 .485-6.232l.216-15.918a11.921 11.921 0 0 0-.404-2.762c-.884-3.283-2.241-5.874-2.718-6.603-2.798-4.279-9.417-13.759-26.468-13.759"/>
  <path fill="#DDB49E" d="M81.935 66.2s.534-.152 2.138-.392c1.484-.223 9.404 2.995 9.404 2.995s-5.522 3.423-11.568 2.975"/>
  <path fill="#6C422A" d="M82.631 62.587l3.161-.63a2.595 2.595 0 0 1 1.691.227c2.358 1.183 9.13 4.533 9.553 4.296 1.511-.844-.564 1.851-1.639 1.418-3.41-1.371-10.976-2.763-12.767-2.929l.001-2.382z"/>
  <path fill="#613C23" d="M76.885 38.725c.455 0 .981-1.651.207-2.27-.774-.618-5.616-1.59-5.616-1.59-.946-.252-3.952-.318-6.688.467 0 0-6.047 3.143-5.4 2.897 1.197-.454 6.707-1.219 6.707-1.219 1.482-.139 3.075-.276 4.341.102-.001-.001 5.996 1.613 6.449 1.613"/>
  <path fill="#6C422A" d="M86.484 38.725c-.455 0-.979-1.651-.206-2.27.774-.618 5.616-1.59 5.616-1.59.946-.252 3.95-.318 6.687.467 0 0 6.047 3.143 5.401 2.897-1.197-.454-6.708-1.219-6.708-1.219-1.481-.139-3.074-.276-4.339.102.001-.001-5.996 1.613-6.451 1.613"/>
  <path fill="#613C23" d="M99.59 11.694s-2.945-6.28-5.056-7.635C92.427 2.701 80.828-1.066 76.151.29c-4.676 1.356-14.774 5.727-16.884 9.797-2.111 4.069-5.658 4.37-6.145 6.179-.487 1.809-.789 7.386-2.295 9.346-1.508 1.959-4.823 9.084-3.467 11.098 1.356 2.015-.301 5.329.301 6.535.604 1.206 0 10.853 3.166 13.867 2.475 2.355 2.42 5.425.909 7.083-1.513 1.658-3.019 2.751-4.074 1.602s-2.261 2.046-1.658 3.011 3.617 3.377 4.973 1.719 5.567 6.045 4.673 7.55c-.894 1.508 1.361 2 4.328 1.945 2.965-.057 2.744 2.25 1.503 3.466-1.24 1.215 4.168 2.642 3.265-3.84-.483-3.457-2.631-6.311-4.531-8.221-1.946-1.956-2.945-4.652-2.818-7.408.155-3.32.198-7.422-.389-9.018-.458-1.245-.803-5.085-.898-9.422-.123-5.637.177-12.119 1.199-14.845 1.809-4.822 1.809-8.44 7.084-11.907 5.276-3.466 15.071-6.783 19.593-5.727 4.521 1.056 15.153.217 15.604-1.406"/>
  <path fill="#FFF" d="M51.833 97.236H111.5v54.5H51.833z"/>
  <g fill="#010101">
    <path d="M102.25 109.666V90.568l-20.618 5.194-20.618-5.194v19.098l20.618-5.193z"/>
    <path d="M138.964 230.402l25.536.896-19.368-118.538-.282-1.743-33.187-13.878-29.413 73.705-29.414-73.705-33.185 13.878L0 231.299l25.538-.896 11.224-65.301.245 12.972-2.704 37.755-2.803 26.9h39.946l10.804-20.17 10.804 20.17h39.945l-2.802-26.9-2.705-37.802.246-12.95 11.226 65.325zm-18.073-80.138H101.16v-7.601h19.731v7.601z"/>
  </g>
</svg>
